# xmcd
#
# Track frame offsets:
# 150
# 15604
# 26511
# 48152
# 67354
# 79206
# 93396
# 106286
# 117195
# 138977
#
# Disc length: 2063 seconds
#
#
# Revision: 6
# Processed by: cddbd v1.5.1PL2 Copyright (c) Steve Scherf et al.
# Submitted via: FreeRIP 2.945 
#
DISCID=80080d0a
DTITLE=ZZ TOP - Degüello
DYEAR=1979
DGENRE=Rock
TTITLE0=I Thank You
TTITLE1=She Loves My Automobile
TTITLE2=I'm Bad, I'm Nationwide
TTITLE3=A Fool For Your Stockings
TTITLE4=Manic Mechanic
TTITLE5=Dust My Broom
TTITLE6=Lowdown In The Street
TTITLE7=Hi Fi Mama
TTITLE8=Cheap Sunglasses
TTITLE9=Esther Be The One
EXTD=
EXTT0=
EXTT1=
EXTT2=
EXTT3=
EXTT4=
EXTT5=
EXTT6=
EXTT7=
EXTT8=
EXTT9=
PLAYORDER=
